# xmcd
#
# Track frame offsets:
#	150
#	18250
#	32690
#	49360
#	65075
#	78302
#	92120
#	107460
#	120820
#	135300
#	148025
#	161347
#	176222
#	190822
#	205910
#	220677
#	232167
#	247575
#	259575
#
# Disc length: 3761 seconds
#
# Revision: 0
# Processed by: cddbd v1.5.2PL0 Copyright (c) Steve Scherf et al.
# Submitted via: audiograbber 1.83.01
#
DISCID=fb0eaf13
DTITLE=Various Artist - SAV-C5
DYEAR=1900
DGENRE=various
TTITLE0=Gosdin, Vern - Chiseled In Stone
TTITLE1=Black, Clint - Better Man
TTITLE2=Seals, Dan - BOP
TTITLE3=McEntire, Reba - Whoever's In New England
TTITLE4=Strait, George - The Chair
TTITLE5=Highway 101 - Whiskey, If You Were A Woman
TTITLE6=Dunn, Holly - Daddy's Hands
TTITLE7=Whitley, Keith - Homecoming "63
TTITLE8=Loveless, Patty - If My Heart Had Windows
TTITLE9=Travis, Randy - 1982
TTITLE10=Travis, Randy - Diggin' Up Bones
TTITLE11=Skaggs, Ricky - Heartbroke
TTITLE12=Skaggs, Ricky - Highway 40 Blues
TTITLE13=Van Shelton, Ricky - Somebody Lied
TTITLE14=Judds - Mama He's Crazy
TTITLE15=Whites - Hangin' Around
TTITLE16=Loretta Lynn - Coal Miner's Daughter
TTITLE17=Nelson, Willie - Blue Eyes Crying In The Rain
TTITLE18=Nelson, Willie - City Of New Orleans
EXTD=
EXTT0=
EXTT1=
EXTT2=
EXTT3=
EXTT4=
EXTT5=
EXTT6=
EXTT7=
EXTT8=
EXTT9=
EXTT10=
EXTT11=
EXTT12=
EXTT13=
EXTT14=
EXTT15=
EXTT16=
EXTT17=
EXTT18=
PLAYORDER=
